Coordinates
version=1
nRows=29
nColumns=24
inDegrees=yes

Units are S.I. units (second, meters, Newtons, ...)
Angles are in degrees.

endheader
time	pelvis_tilt	pelvis_list	pelvis_rotation	pelvis_tx	pelvis_ty	pelvis_tz	hip_flexion_r	hip_adduction_r	hip_rotation_r	knee_angle_r	ankle_angle_r	subtalar_angle_r	mtp_angle_r	hip_flexion_l	hip_adduction_l	hip_rotation_l	knee_angle_l	ankle_angle_l	subtalar_angle_l	mtp_angle_l	lumbar_extension	lumbar_bending	lumbar_rotation
      0.77083333	     -0.29470067	      1.46045041	      2.62522151	     -0.35552684	      1.07089467	      0.30940375	      9.52247942	      1.51347349	     -0.02605696	    -17.88106878	     10.91158168	     -6.37355592	      7.31113089	     15.55387340	     -3.03665703	     -5.02436419	    -68.92497762	     12.19662753	      3.87532635	      3.12745605	    -12.92656601	      3.77987139	      0.67468371
      0.77500000	     -0.24144701	      1.53724696	      2.53213986	     -0.35024791	      1.07169230	      0.30976881	      8.99013577	      1.46059608	      0.00191297	    -17.53585628	     11.01337615	     -6.25171868	      7.29297699	     15.98607148	     -2.97246703	     -5.18363359	    -68.48314977	     12.49093693	      4.12762485	      3.13146539	    -12.94446685	      3.63388590	      0.81723281
      0.77916667	     -0.19340610	      1.60243290	      2.43877061	     -0.34498942	      1.07242430	      0.31011633	      8.46277552	      1.41889130	      0.03151112	    -17.18390629	     11.11800176	     -6.13512060	      7.26354915	     16.42201044	     -2.92186770	     -5.34710072	    -68.01404013	     12.76367095	      4.36426714	      3.13563811	    -12.96278795	      3.49865991	      1.01629329
      0.78333333	     -0.16264040	      1.67989511	      2.33246700	     -0.33972999	      1.07309007	      0.31047458	      7.96146012	      1.36229871	      0.07033931	    -16.84593861	     11.19014851	     -6.03582835	      7.25029115	     16.86086408	     -2.85921676	     -5.52680051	    -67.49617222	     13.03826411	      4.59989259	      3.14377776	    -12.95289069	      3.34980423	      1.10615506
      0.78750000	     -0.09250927	      1.73103809	      2.23040309	     -0.33448105	      1.07378150	      0.31082685	      7.40644042	      1.33654917	      0.11552091	    -16.48078909	     11.29380544	     -5.94608437	      7.22603465	     17.25169800	     -2.83262365	     -5.70524171	    -66.94552161	     13.28532075	      4.87779463	      3.15535979	    -12.99471663	      3.23757833	      1.30706612
      0.79166667	     -0.05810967	      1.81251929	      2.11333339	     -0.32922227	      1.07439460	      0.31117773	      6.90153502	      1.27288672	      0.16432512	    -16.14128472	     11.36885895	     -5.85491747	      7.21132531	     17.66030547	     -2.76772593	     -5.89999351	    -66.33720453	     13.51471563	      5.12762677	      3.16689815	    -12.98367851	      3.09224454	      1.42148199
      0.79583333	     -0.01168654	      1.88890525	      1.99410163	     -0.32398824	      1.07497978	      0.31153722	      6.38290914	      1.21501990	      0.21903418	    -15.79480113	     11.46089173	     -5.76026563	      7.19693753	     18.04911337	     -2.71303709	     -6.09779059	    -65.69616013	     13.72874475	      5.38961332	      3.18038614	    -12.99944714	      2.94684868	      1.57154516
      0.80000000	      0.03255268	      1.95540230	      1.87676995	     -0.31875566	      1.07551427	      0.31187847	      5.86552576	      1.16571272	      0.27307327	    -15.44448252	     11.54676518	     -5.66940479	      7.18369519	     18.43198496	     -2.66779271	     -6.29177118	    -65.02315290	     13.92587124	      5.65110267	      3.19489592	    -13.01158137	      2.81045323	      1.71992180
      0.80416667	      0.06634203	      2.01527705	      1.75878392	     -0.31353775	      1.07597399	      0.31221396	      5.36332187	      1.12188518	      0.33181308	    -15.10020257	     11.63623073	     -5.58111360	      7.17093306	     18.81982461	     -2.63037420	     -6.48544683	    -64.32127452	     14.10673867	      5.91431551	      3.21062047	    -13.01697096	      2.67956804	      1.87280099
      0.80833333	      0.12211013	      2.06345497	      1.64560334	     -0.30833026	      1.07643084	      0.31253504	      4.83022482	      1.09058870	      0.39431701	    -14.73832949	     11.73535541	     -5.50155209	      7.15293298	     19.17580931	     -2.60504635	     -6.67086706	    -63.58737803	     14.27021762	      6.16926255	      3.23247212	    -13.05342517	      2.55472062	      2.07152030
      0.81250000	      0.15078670	      2.13902754	      1.52018424	     -0.30312449	      1.07681800	      0.31285530	      4.34220033	      1.02365777	      0.45111657	    -14.41046306	     11.81583860	     -5.41617636	      7.14260617	     19.54019344	     -2.54530897	     -6.86427513	    -62.79878305	     14.40199042	      6.39984323	      3.24808984	    -13.04676330	      2.41631558	      2.17867530
      0.81666667	      0.19450200	      2.19489156	      1.40155964	     -0.29792743	      1.07717375	      0.31315054	      3.83262508	      0.97716541	      0.50642744	    -14.06890183	     11.90864253	     -5.32909408	      7.13298076	     19.88301835	     -2.50673968	     -7.05003293	    -61.98850193	     14.52848186	      6.64028969	      3.26465339	    -13.06570109	      2.29648704	      2.31301374
      0.82083333	      0.22989546	      2.25156743	      1.28524810	     -0.29273996	      1.07747650	      0.31343265	      3.33486499	      0.92698583	      0.56100375	    -13.73223225	     12.00596262	     -5.24411586	      7.12353023	     20.22413513	     -2.46291921	     -7.22630393	    -61.14229574	     14.63049937	      6.85221856	      3.28139413	    -13.07595260	      2.17236492	      2.45298588
      0.82500000	      0.27227522	      2.29645759	      1.17334141	     -0.28756779	      1.07773303	      0.31370222	      2.83079013	      0.88813911	      0.61259934	    -13.39742350	     12.10381518	     -5.16030998	      7.11402538	     20.55056210	     -2.42995952	     -7.39062062	    -60.27202660	     14.71955108	      7.05082872	      3.29848778	    -13.09701267	      2.06759752	      2.59201379
      0.82916667	      0.30185755	      2.34619347	      1.06280226	     -0.28239395	      1.07793495	      0.31394654	      2.34385840	      0.84009837	      0.66052519	    -13.06957365	     12.20334700	     -5.07515428	      7.10540875	     20.87688123	     -2.38515477	     -7.54759370	    -59.36396064	     14.78664413	      7.21629989	      3.31400492	    -13.10370276	      1.95545939	      2.71557616
      0.83333333	      0.35815604	      2.38858689	      0.95697733	     -0.27724297	      1.07812291	      0.31418947	      1.82616118	      0.79983187	      0.70317099	    -12.73521200	     12.32663453	     -4.98029692	      7.09172193	     21.16638744	     -2.34776325	     -7.69482906	    -58.43167402	     14.83964181	      7.35394899	      3.33720988	    -13.15025349	      1.84774920	      2.88452466
      0.83750000	      0.38005675	      2.43158097	      0.85148998	     -0.27208592	      1.07822990	      0.31440020	      1.35546668	      0.75416686	      0.74453196	    -12.42266889	     12.41377261	     -4.89647248	      7.08348883	     21.47765921	     -2.30105660	     -7.83085932	    -57.45951145	     14.87065207	      7.47214497	      3.35062134	    -13.15022416	      1.75206838	      2.96531708
      0.84166667	      0.39642689	      2.46475358	      0.75123342	     -0.26694307	      1.07826178	      0.31460179	      0.89207806	      0.71829703	      0.78343518	    -12.11121526	     12.52573571	     -4.80727224	      7.07545872	     21.78875314	     -2.26230537	     -7.95369693	    -56.46918509	     14.89077892	      7.55463298	      3.36380562	    -13.14746360	      1.66577390	      3.06589790
      0.84583333	      0.43294071	      2.48957356	      0.65575856	     -0.26180927	      1.07829063	      0.31478781	      0.40688907	      0.68917822	      0.81389197	    -11.79964131	     12.63332706	     -4.71708031	      7.06705551	     22.06561249	     -2.22870680	     -8.06304844	    -55.44869766	     14.89487526	      7.60469080	      3.37627876	    -13.17427186	      1.58802899	      3.16540699
      0.85000000	      0.45893540	      2.50522597	      0.56740896	     -0.25668503	      1.07824751	      0.31494851	     -0.06494572	      0.66861991	      0.84034959	    -11.49209145	     12.74479823	     -4.62708179	      7.05822271	     22.34555999	     -2.19804372	     -8.15570663	    -54.40584335	     14.88889425	      7.62106347	      3.38816743	    -13.19091160	      1.52404094	      3.25859730
      0.85416667	      0.46700540	      2.51374094	      0.48307043	     -0.25156070	      1.07812077	      0.31510199	     -0.51333934	      0.65486659	      0.86796169	    -11.19335925	     12.86052894	     -4.53660053	      7.04928117	     22.63581415	     -2.17224765	     -8.23625368	    -53.34252780	     14.86925524	      7.60339625	      3.39893416	    -13.18661460	      1.46807184	      3.34207396
      0.85833333	      0.47984002	      2.52078846	      0.40107909	     -0.24645034	      1.07796834	      0.31523037	     -0.96372205	      0.63971886	      0.88572140	    -10.90081806	     12.97969441	     -4.44363011	      7.03891956	     22.90653062	     -2.14089776	     -8.30374707	    -52.24684980	     14.83641310	      7.54540481	      3.40938893	    -13.19515142	      1.42104940	      3.42148256
      0.86250000	      0.49461418	      2.51453381	      0.32547548	     -0.24134337	      1.07776780	      0.31534900	     -1.41629191	      0.63872676	      0.90201977	    -10.60775953	     13.09609563	     -4.35021653	      7.02864541	     23.16677138	     -2.12052245	     -8.35586424	    -51.13328562	     14.79787832	      7.46452336	      3.41838832	    -13.20651436	      1.38704522	      3.48754174
      0.86666667	      0.48988629	      2.50037919	      0.25505967	     -0.23624573	      1.07748413	      0.31544265	     -1.84290380	      0.64494897	      0.91809189	    -10.32577768	     13.21756058	     -4.25659040	      7.01760167	     23.43919398	     -2.10293531	     -8.39348361	    -50.00008805	     14.75019515	      7.35076622	      3.42649776	    -13.19495382	      1.36465067	      3.54720114
      0.87083333	      0.49757103	      2.48594198	      0.18847835	     -0.23115109	      1.07718185	      0.31553797	     -2.28387427	      0.65141724	      0.92880305	    -10.04209954	     13.33850848	     -4.16370396	      7.00610206	     23.68445131	     -2.08343005	     -8.42187426	    -48.84054427	     14.69575888	      7.20894752	      3.43329079	    -13.20902899	      1.34518509	      3.59447194
      0.87500000	      0.50094038	      2.45555539	      0.12685845	     -0.22606616	      1.07683065	      0.31560487	     -2.71623282	      0.67405149	      0.93980242	     -9.76829056	     13.45992055	     -4.07160791	      6.99358770	     23.92469848	     -2.07320058	     -8.42891685	    -47.66106501	     14.63816999	      7.04803764	      3.43931425	    -13.21139841	      1.34432515	      3.63655066
      0.87916667	      0.49172637	      2.41634868	      0.07141836	     -0.22098009	      1.07641288	      0.31565543	     -3.13552555	      0.70598140	      0.94843837	     -9.49375918	     13.58077974	     -3.98421507	      6.97903945	     24.16943186	     -2.06876725	     -8.42359104	    -46.46617773	     14.57863242	      6.86867673	      3.44532897	    -13.20902515	      1.35700983	      3.67350546
      0.88333333	      0.47593611	      2.36748963	      0.02024117	     -0.21590115	      1.07592778	      0.31569697	     -3.54347977	      0.74842309	      0.95808421	     -9.22958099	     13.70417167	     -3.90185205	      6.96335905	     24.41160550	     -2.07200227	     -8.40611296	    -45.25500024	     14.52386318	      6.68536986	      3.45057068	    -13.19595105	      1.38015455	      3.70207259
      0.88750000	      0.44810983	      2.30732408	     -0.02522511	     -0.21082290	      1.07538088	      0.31572006	     -3.93787183	      0.80341464	      0.97077233	     -8.96880920	     13.82835137	     -3.82224825	      6.94561128	     24.65798802	     -2.08263190	     -8.37305573	    -44.02874774	     14.46923897	      6.49453106	      3.45579744	    -13.17222454	      1.41917338	      3.72606033
